<?xml version="1.0" encoding="UTF-8" standalone="no"?><svg xmlns="http://www.w3.org/2000/svg" xmlns:xlink="http://www.w3.org/1999/xlink" contentScriptType="application/ecmascript" contentStyleType="text/css" height="313px" preserveAspectRatio="none" style="width:534px;height:313px;background:#FFFFFF;" version="1.1" viewBox="0 0 534 313" width="534px" zoomAndPan="magnify"><defs><filter height="300%" id="f1svaoojgr2pdh" width="300%" x="-1" y="-1"><feGaussianBlur result="blurOut" stdDeviation="2.0"/><feColorMatrix in="blurOut" result="blurOut2" type="matrix" values="0 0 0 0 0 0 0 0 0 0 0 0 0 0 0 0 0 0 .4 0"/><feOffset dx="4.0" dy="4.0" in="blurOut2" result="blurOut3"/><feBlend in="SourceGraphic" in2="blurOut3" mode="normal"/></filter></defs><g><!--MD5=[0a9ac0d196cad6ccfe4cdeeb7405401c]
entity Gitee--><rect fill="#FEFECE" filter="url(#f1svaoojgr2pdh)" height="46.2969" style="stroke:#A80036;stroke-width:1.5;" width="80" x="213.5" y="7"/><rect fill="#FEFECE" height="10" style="stroke:#A80036;stroke-width:1.5;" width="15" x="273.5" y="12"/><rect fill="#FEFECE" height="2" style="stroke:#A80036;stroke-width:1.5;" width="4" x="271.5" y="14"/><rect fill="#FEFECE" height="2" style="stroke:#A80036;stroke-width:1.5;" width="4" x="271.5" y="18"/><text fill="#000000" font-family="sans-serif" font-size="14" lengthAdjust="spacing" textLength="40" x="228.5" y="39.9951">Gitee</text><!--MD5=[b8262ed2d8d5d5cbd1d495d0ef5720ab]
entity access--><rect fill="#FEFECE" filter="url(#f1svaoojgr2pdh)" height="46.2969" style="stroke:#A80036;stroke-width:1.5;" width="178" x="164.5" y="130"/><rect fill="#FEFECE" height="10" style="stroke:#A80036;stroke-width:1.5;" width="15" x="322.5" y="135"/><rect fill="#FEFECE" height="2" style="stroke:#A80036;stroke-width:1.5;" width="4" x="320.5" y="137"/><rect fill="#FEFECE" height="2" style="stroke:#A80036;stroke-width:1.5;" width="4" x="320.5" y="141"/><text fill="#000000" font-family="sans-serif" font-size="14" lengthAdjust="spacing" textLength="138" x="179.5" y="162.9951">robot-gitee-access</text><!--MD5=[770389ab9df153645bc6ef28055eb2b5]
entity A--><rect fill="#FEFECE" filter="url(#f1svaoojgr2pdh)" height="46.2969" style="stroke:#A80036;stroke-width:1.5;" width="141" x="7" y="253"/><rect fill="#FEFECE" height="10" style="stroke:#A80036;stroke-width:1.5;" width="15" x="128" y="258"/><rect fill="#FEFECE" height="2" style="stroke:#A80036;stroke-width:1.5;" width="4" x="126" y="260"/><rect fill="#FEFECE" height="2" style="stroke:#A80036;stroke-width:1.5;" width="4" x="126" y="264"/><text fill="#000000" font-family="sans-serif" font-size="14" lengthAdjust="spacing" textLength="101" x="22" y="285.9951">robot-gitee-A</text><!--MD5=[b2d39259b6aeabc16b394deeb0238426]
entity B--><rect fill="#FEFECE" filter="url(#f1svaoojgr2pdh)" height="46.2969" style="stroke:#A80036;stroke-width:1.5;" width="141" x="183" y="253"/><rect fill="#FEFECE" height="10" style="stroke:#A80036;stroke-width:1.5;" width="15" x="304" y="258"/><rect fill="#FEFECE" height="2" style="stroke:#A80036;stroke-width:1.5;" width="4" x="302" y="260"/><rect fill="#FEFECE" height="2" style="stroke:#A80036;stroke-width:1.5;" width="4" x="302" y="264"/><text fill="#000000" font-family="sans-serif" font-size="14" lengthAdjust="spacing" textLength="101" x="198" y="285.9951">robot-gitee-B</text><!--MD5=[d5781f957670809f73f78a44cceb4131]
entity X--><rect fill="#FEFECE" filter="url(#f1svaoojgr2pdh)" height="46.2969" style="stroke:#A80036;stroke-width:1.5;" width="161" x="359" y="253"/><rect fill="#FEFECE" height="10" style="stroke:#A80036;stroke-width:1.5;" width="15" x="500" y="258"/><rect fill="#FEFECE" height="2" style="stroke:#A80036;stroke-width:1.5;" width="4" x="498" y="260"/><rect fill="#FEFECE" height="2" style="stroke:#A80036;stroke-width:1.5;" width="4" x="498" y="264"/><text fill="#000000" font-family="sans-serif" font-size="14" lengthAdjust="spacing" textLength="121" x="374" y="285.9951">robot-gitee-XXX</text><!--MD5=[01cc8eb0c04f64e0cf364c75dfa797b8]
link Gitee to access--><path d="M253.5,53.193 C253.5,73.405 253.5,103.307 253.5,124.919 " fill="none" id="Gitee-to-access" style="stroke:#A80036;stroke-width:1.0;"/><polygon fill="#A80036" points="253.5,129.947,257.5,120.947,253.5,124.947,249.5,120.947,253.5,129.947" style="stroke:#A80036;stroke-width:1.0;"/><text fill="#000000" font-family="sans-serif" font-size="13" lengthAdjust="spacing" textLength="33" x="254.5" y="96.0669">https</text><!--MD5=[f27df5462b8788b12b80786cc5caaed8]
link access to A--><path d="M221.219,176.193 C190.827,197.087 145.374,228.3369 113.75,250.0783 " fill="none" id="access-to-A" style="stroke:#A80036;stroke-width:1.0;"/><polygon fill="#A80036" points="109.576,252.9474,119.2584,251.1444,113.6961,250.1146,114.7259,244.5523,109.576,252.9474" style="stroke:#A80036;stroke-width:1.0;"/><text fill="#000000" font-family="sans-serif" font-size="13" lengthAdjust="spacing" textLength="26" x="177.5" y="219.0669">http</text><!--MD5=[689e5cccafa8a3853bfa054a901d5b63]
link access to B--><path d="M253.5,176.193 C253.5,196.405 253.5,226.3072 253.5,247.9188 " fill="none" id="access-to-B" style="stroke:#A80036;stroke-width:1.0;"/><polygon fill="#A80036" points="253.5,252.9474,257.5,243.9474,253.5,247.9474,249.5,243.9474,253.5,252.9474" style="stroke:#A80036;stroke-width:1.0;"/><text fill="#000000" font-family="sans-serif" font-size="13" lengthAdjust="spacing" textLength="26" x="254.5" y="219.0669">http</text><!--MD5=[482ba2584ba8840ba731cac3ce10416f]
link access to X--><path d="M287.615,176.193 C319.734,197.087 367.77,228.3369 401.191,250.0783 " fill="none" id="access-to-X" style="stroke:#A80036;stroke-width:1.0;"/><polygon fill="#A80036" points="405.601,252.9474,400.2369,244.6875,401.4094,250.2215,395.8754,251.394,405.601,252.9474" style="stroke:#A80036;stroke-width:1.0;"/><text fill="#000000" font-family="sans-serif" font-size="13" lengthAdjust="spacing" textLength="26" x="358.5" y="219.0669">http</text><!--MD5=[a9c245e176f1ccb21da6658c033585f8]
@startuml
[Gitee]
[robot-gitee-access] as access
[robot-gitee-A] as A
[robot-gitee-B] as B
[robot-gitee-XXX] as X

Gitee - -> access: https

access - -> A: http

access - -> B: http

access - -> X: http
@enduml

PlantUML version 1.2021.16beta3(Unknown compile time)
(GPL source distribution)
Java Runtime: Java(TM) SE Runtime Environment
JVM: Java HotSpot(TM) 64-Bit Server VM
Default Encoding: UTF-8
Language: en
Country: US
--></g></svg>